<?xml version="1.0" standalone="no"?>
<!DOCTYPE svg PUBLIC "-//W3C//DTD SVG 20010904//EN"
 "http://www.w3.org/TR/2001/REC-SVG-20010904/DTD/svg10.dtd">
<svg version="1.0" xmlns="http://www.w3.org/2000/svg"
 width="600.000000pt" height="506.000000pt" viewBox="0 0 600.000000 506.000000"
 preserveAspectRatio="xMidYMid meet">
<g transform="translate(0.000000,506.000000) scale(0.100000,-0.100000)"
fill="#000000" stroke="none">
<path d="M810 4641 c-204 -7 -222 -10 -255 -58 -37 -53 -22 -133 33 -169 24
-16 50 -18 222 -16 107 1 233 5 280 8 63 4 89 2 101 -8 9 -7 28 -47 42 -88 26
-78 234 -657 267 -745 10 -27 37 -102 60 -165 23 -63 50 -137 60 -165 10 -27
79 -219 153 -425 171 -476 180 -501 211 -585 14 -38 26 -71 26 -72 0 -1 -40
-23 -90 -48 -159 -83 -248 -192 -273 -339 -40 -236 140 -483 391 -535 37 -8
477 -11 1438 -11 l1386 0 34 34 c29 29 34 41 34 80 0 39 -6 52 -34 84 l-34 37
-1394 5 c-1299 5 -1396 6 -1430 22 -94 44 -152 128 -151 214 2 64 20 102 74
147 58 50 143 81 331 122 90 20 182 40 206 45 23 6 61 14 85 19 23 6 83 19
132 30 50 11 155 34 235 51 145 31 290 63 365 80 52 12 405 89 615 135 91 20
192 42 225 50 33 8 148 33 255 55 107 23 209 45 225 49 17 5 57 14 90 21 84
16 121 37 140 77 9 18 126 362 261 763 268 797 261 770 202 827 l-29 28 -1881
5 -1881 5 -16 30 c-9 17 -22 48 -30 70 -26 79 -94 261 -108 287 -30 62 -59 64
-573 49z m1007 -693 c10 -13 43 -119 46 -148 2 -12 -15 -16 -90 -18 l-91 -3
-22 58 c-12 32 -24 73 -27 91 l-6 32 90 0 c61 0 94 -4 100 -12z m345 -46 c10
-29 19 -67 20 -85 l3 -32 -93 0 -94 0 -25 74 c-13 40 -22 80 -19 88 4 11 25
13 98 11 l93 -3 17 -53z m365 46 c9 -15 31 -114 32 -145 1 -23 -1 -23 -118
-23 l-119 0 -11 33 c-22 71 -32 120 -27 133 7 19 231 20 243 2z m384 -21 c4
-15 9 -53 11 -85 l3 -57 -120 0 -120 0 -12 65 c-22 120 -31 111 109 108 l122
-3 7 -28z m381 -47 c4 -41 5 -81 3 -87 -3 -10 -37 -13 -123 -13 l-119 0 -11
81 c-7 45 -9 85 -6 90 3 5 60 8 127 7 l122 -3 7 -75z m345 68 c4 -7 7 -48 5
-90 l-4 -78 -108 0 -108 0 -7 79 c-4 44 -4 85 0 90 9 16 210 14 222 -1z m339
-3 c4 -9 3 -49 -1 -91 l-7 -75 -101 3 -102 3 -3 67 c-4 103 0 108 114 108 75
0 96 -3 100 -15z m301 -66 c-3 -45 -9 -85 -15 -91 -5 -5 -44 -8 -88 -6 l-79 3
2 65 c4 114 0 110 100 110 l86 0 -6 -81z m378 69 c6 -16 -21 -148 -33 -160 -5
-5 -58 -7 -118 -6 l-109 3 4 70 c5 107 2 105 137 105 82 0 116 -3 119 -12z
m415 -1 c0 -19 -41 -140 -53 -154 -7 -9 -46 -13 -135 -13 l-125 0 6 53 c3 28
11 69 17 90 l11 37 139 0 c109 0 140 -3 140 -13z m-3162 -299 c8 -12 42 -116
42 -132 0 -4 -39 -5 -87 -4 l-86 3 -24 63 c-13 35 -21 68 -18 73 9 14 161 11
173 -3z m327 -28 c7 -19 15 -52 19 -73 l7 -38 -92 3 -92 3 -18 64 c-10 35 -16
68 -13 73 3 5 44 7 91 6 l86 -3 12 -35z m342 32 c6 -4 14 -25 18 -47 3 -22 9
-53 12 -68 l5 -28 -113 3 -113 3 -15 56 c-22 86 -19 89 96 89 54 0 103 -4 110
-8z m360 -4 c6 -7 13 -41 16 -76 l5 -63 -111 3 -112 3 -12 60 c-7 33 -10 66
-8 73 3 8 34 12 108 12 72 0 108 -4 114 -12z m365 -57 c4 -35 5 -68 2 -73 -3
-4 -54 -8 -113 -8 l-108 0 -7 38 c-3 20 -6 54 -6 75 l0 38 113 -3 112 -3 7
-64z m328 54 c8 -10 10 -33 5 -75 l-7 -60 -99 0 c-54 0 -99 1 -99 3 -8 50 -11
120 -6 132 8 22 188 22 206 0z m328 -9 c2 -10 1 -43 -3 -73 l-7 -54 -96 3 -97
3 0 55 c-1 89 1 91 108 88 81 -3 92 -5 95 -22z m287 13 c4 -6 4 -40 0 -75 l-7
-65 -81 3 -82 3 4 65 c2 36 8 68 15 72 17 12 144 9 151 -3z m351 -2 c2 -7 -2
-40 -9 -72 l-14 -60 -108 -3 -108 -3 7 63 c4 35 12 68 18 75 15 18 207 18 214
0z m369 3 c3 -5 -4 -38 -16 -75 l-21 -65 -114 0 c-63 0 -114 1 -114 3 0 23 24
125 32 135 13 15 224 17 233 2z m-2975 -275 c13 -16 40 -104 40 -132 0 -22 -4
-23 -69 -23 -43 0 -72 5 -78 13 -17 22 -54 137 -48 147 9 15 142 10 155 -5z
m304 4 c11 -10 37 -131 32 -145 -7 -19 -139 -20 -155 0 -14 17 -41 104 -41
135 0 23 2 23 79 20 44 -2 82 -7 85 -10z m333 -1 c14 -18 37 -134 29 -147 -4
-7 -43 -11 -96 -11 -101 0 -99 -2 -120 88 -18 79 -15 82 88 82 60 0 93 -4 99
-12z m342 -6 c6 -10 11 -48 13 -83 l3 -64 -88 -3 c-54 -2 -94 2 -102 8 -7 6
-18 41 -25 77 -9 53 -9 68 2 74 7 5 52 9 100 9 75 0 89 -3 97 -18z m330 9 c9
-6 14 -32 15 -82 l1 -74 -94 -3 c-52 -1 -98 1 -102 5 -4 4 -11 39 -15 76 -5
54 -4 71 7 78 18 11 170 11 188 0z m316 -5 c17 -12 18 -20 9 -82 l-9 -69 -85
0 -85 0 -6 65 c-8 94 -3 100 84 100 46 0 80 -5 92 -14z m309 8 c17 -7 21 -58
10 -126 l-7 -38 -83 0 c-52 0 -85 4 -90 12 -8 12 -6 137 2 150 6 9 145 11 168
2z m285 -3 c11 -7 12 -23 5 -83 l-9 -73 -69 -3 c-46 -2 -72 1 -77 9 -9 16 1
131 14 147 11 14 115 16 136 3z m324 -51 c-1 -30 -6 -67 -12 -82 -10 -28 -12
-28 -95 -28 -47 0 -87 4 -90 9 -3 4 -3 39 1 76 7 80 14 85 123 82 l75 -2 -2
-55z m341 45 c3 -8 -6 -47 -20 -85 l-26 -70 -89 0 c-48 0 -90 4 -93 9 -8 13
20 129 34 147 18 21 185 20 194 -1z m-2790 -287 c2 -7 11 -37 20 -67 9 -29 13
-57 10 -62 -8 -14 -120 -11 -131 4 -9 11 -53 121 -53 132 0 3 34 5 75 5 52 0
77 -4 79 -12z m301 -44 c24 -85 22 -89 -62 -92 l-72 -3 -20 67 c-12 36 -21 70
-21 75 0 5 36 9 79 9 l80 0 16 -56z m312 -9 c7 -33 10 -66 8 -73 -3 -9 -27
-12 -87 -10 l-83 3 -17 50 c-9 28 -17 60 -17 73 -1 22 1 23 92 20 l92 -3 12
-60z m306 58 c3 -5 6 -37 8 -73 l4 -65 -89 0 -89 0 -13 55 c-22 95 -27 90 80
90 52 0 97 -3 99 -7z m322 -36 c4 -24 5 -56 3 -73 l-3 -29 -84 -3 c-46 -2 -88
1 -93 6 -5 5 -11 38 -15 75 l-6 67 96 0 96 0 6 -43z m295 -19 c0 -35 -4 -69
-9 -76 -5 -9 -29 -12 -82 -10 l-74 3 -8 60 c-4 33 -5 66 -2 73 3 8 31 12 90
12 l85 0 0 -62z m300 10 c0 -98 0 -98 -96 -98 l-84 0 0 68 c0 38 3 72 7 75 3
4 44 7 90 7 l83 0 0 -52z m266 -15 c-4 -38 -11 -72 -15 -76 -4 -4 -35 -7 -67
-5 l-59 3 -3 59 c-4 85 -4 86 79 86 l72 0 -7 -67z m296 22 c-2 -22 -8 -55 -13
-73 l-11 -33 -76 3 -77 3 2 59 c3 89 1 87 95 84 l83 -3 -3 -40z m298 32 c0
-19 -31 -110 -43 -124 -11 -15 -133 -18 -141 -4 -5 8 8 92 19 129 6 18 165 17
165 -1z m-2599 -317 c10 -30 18 -65 18 -77 1 -21 -3 -23 -53 -23 -31 0 -58 5
-63 13 -17 21 -54 128 -47 138 3 6 33 9 66 7 l61 -3 18 -55z m255 48 c12 -20
42 -137 36 -143 -10 -10 -131 -5 -137 5 -13 20 -43 139 -37 144 11 12 131 6
138 -6z m311 -58 c7 -36 10 -71 8 -77 -3 -9 -27 -13 -75 -13 -67 0 -71 1 -80
26 -17 44 -31 115 -24 125 3 5 40 9 82 7 l77 -3 12 -65z m288 48 c3 -13 7 -48
8 -78 l2 -55 -80 0 -80 0 -13 65 c-7 35 -10 70 -8 77 4 9 29 13 85 13 75 0 81
-1 86 -22z m300 -1 c4 -13 5 -48 3 -78 l-3 -54 -80 0 -80 0 -9 62 c-13 91 -11
93 83 93 76 0 81 -1 86 -23z m270 -57 l0 -75 -72 -3 -73 -3 0 81 0 81 73 -3
72 -3 0 -75z m297 25 c-6 -109 -3 -105 -93 -105 l-79 0 0 73 c0 41 3 77 7 81
4 4 43 5 88 4 l80 -3 -3 -50z m254 42 c3 -8 1 -42 -3 -78 l-8 -64 -62 -3 -63
-3 0 49 c0 27 3 64 6 81 6 31 7 31 66 31 39 0 60 -4 64 -13z m277 6 c8 -14
-21 -136 -35 -144 -7 -5 -39 -9 -72 -9 l-58 0 7 73 c4 39 9 75 12 80 2 4 35 7
73 7 38 0 71 -3 73 -7z m257 -8 c0 -9 -6 -31 -14 -49 -12 -29 -20 -34 -67 -44
-76 -15 -77 -12 -44 96 3 8 25 12 65 12 47 0 60 -3 60 -15z m-2422 -339 c13
-38 21 -71 18 -73 -4 -5 -56 -7 -93 -4 -13 1 -65 130 -57 143 3 5 29 8 57 6
l52 -3 23 -69z m250 41 c8 -16 15 -50 15 -75 l2 -46 -54 2 c-30 1 -58 5 -61 9
-14 16 -41 116 -36 130 4 10 21 13 63 11 52 -3 59 -6 71 -31z m279 -37 c15
-82 8 -89 -67 -81 l-54 6 -18 60 c-25 82 -22 87 59 83 l68 -3 12 -65z m276 -4
c6 -45 5 -71 -2 -75 -11 -7 -106 -5 -126 3 -15 5 -40 110 -31 132 4 12 21 14
78 12 l73 -3 8 -69z m271 58 c8 -21 7 -66 -2 -80 -8 -14 -118 -38 -131 -29
-12 7 -25 90 -17 110 8 22 141 22 150 -1z m256 -8 c0 -21 -7 -26 -50 -35 -77
-17 -80 -16 -80 24 l0 35 65 0 c62 0 65 -1 65 -24z m-1266 -268 c14 -23 0 -37
-47 -45 -33 -5 -38 -3 -47 22 -6 14 -7 31 -4 36 10 16 86 6 98 -13z m163 6
c-3 -3 -12 -4 -19 -1 -8 3 -5 6 6 6 11 1 17 -2 13 -5z"/>
<path d="M1886 1109 c-238 -35 -416 -280 -375 -516 51 -299 375 -466 645 -333
226 111 319 396 199 613 -96 174 -276 265 -469 236z m152 -254 c65 -28 110
-85 127 -164 19 -88 -63 -205 -159 -230 -139 -35 -266 77 -254 224 11 137 157
223 286 170z"/>
<path d="M4661 1104 c-173 -37 -301 -160 -346 -329 -67 -257 103 -513 369
-557 265 -44 516 171 516 441 0 226 -159 414 -380 450 -78 13 -79 13 -159 -5z
m170 -248 c71 -30 129 -117 129 -193 0 -58 -42 -137 -87 -167 -85 -56 -162
-55 -247 3 -43 28 -86 106 -86 155 0 149 157 258 291 202z"/>
</g>
</svg>
